<?xml version="1.0" encoding="UTF-8"?>
<!DOCTYPE svg PUBLIC "-//W3C//DTD SVG 1.1//EN" "http://www.w3.org/Graphics/SVG/1.1/DTD/svg11.dtd">
<!-- Creator: CorelDRAW X8 -->
<svg xmlns="http://www.w3.org/2000/svg" xml:space="preserve" width="40mm" height="20mm" version="1.1" style="shape-rendering:geometricPrecision; text-rendering:geometricPrecision; image-rendering:optimizeQuality; fill-rule:evenodd; clip-rule:evenodd"
viewBox="0 0 4000 2000"
 xmlns:xlink="http://www.w3.org/1999/xlink">
 <defs>
  <style type="text/css">
   <![CDATA[
    .str1 {stroke:#373435;stroke-width:25}
    .str0 {stroke:#373435;stroke-width:20}
    .fil0 {fill:blue}
    .fil1 {fill:#FD9802;fill-rule:nonzero}
    .fil3 {fill:#FD9802;fill-rule:nonzero}
    .fil2 {fill:#FEE300;fill-rule:nonzero}
   ]]>
  </style>
     <clipPath id="id0">
      <path d="M104 53l3772 2 0 230 -3772 -2 0 -230z"/>
     </clipPath>
 </defs>
 <g id="Capa_x0020_1">
  <metadata id="CorelCorpID_0Corel-Layer"/>
  <g id="_1790389096704">
   <rect class="fil0 str0" width="4000" height="2000"/>
   <g>
    <polygon class="fil1 str1" points="3900,284 3342,1921 2799,1921 2503,1018 2224,1921 1658,1921 1100,284 1708,284 2002,1225 2293,284 2799,284 3110,1227 3405,284 "/>
    <path class="fil2 str1" d="M2226 1920l-522 -1642 -814 0c-355,0 -594,82 -718,246 -124,163 -152,352 -83,567 78,245 235,445 473,599 238,153 507,230 809,230l855 0zm-767 -377l-169 0c-107,0 -210,-40 -309,-122 -100,-81 -172,-191 -216,-331 -38,-120 -39,-223 -1,-310 38,-87 119,-130 242,-130l169 0 284 893z"/>
   </g>
   <g>
    <g style="clip-path:url(#id0)">
     <image x="104" y="53" width="3772" height="232" xlink:href="32820-desarrollo_web-bb99c6ee-10cb-4120-a499-0be00e100276_Images\32820-desarrollo_web-bb99c6ee-10cb-4120-a499-0be00e100276_ImgID1.png"/>
    </g>
   </g>
   <g>
    <path class="fil2 str1" d="M143 250l0 -164 112 0c48,0 84,8 108,24 25,17 37,36 37,57 0,25 -13,45 -39,60 -26,16 -60,23 -101,23l-117 0zm89 -37l23 0c14,0 27,-4 37,-13 10,-8 15,-19 15,-33 0,-12 -5,-22 -13,-31 -9,-9 -22,-13 -39,-13l-23 0 0 90zm422 -2l0 39 -217 0 0 -164 217 0 0 38 -130 0 0 24 105 0 0 36 -105 0 0 27 130 0zm5 -8l82 -9c7,13 25,20 54,20 22,0 33,-3 33,-10 0,-4 -3,-6 -8,-8 -5,-2 -14,-4 -27,-5 -51,-6 -83,-13 -98,-22 -14,-9 -21,-20 -21,-32 0,-15 10,-28 31,-38 20,-11 50,-16 89,-16 59,0 97,14 116,41l-73 12c-8,-11 -23,-16 -46,-16 -20,0 -29,3 -29,10 0,3 2,6 6,7 5,2 13,3 26,5 34,4 59,8 73,11 15,3 27,8 36,16 10,8 15,17 15,28 0,16 -12,30 -36,40 -23,11 -54,16 -93,16 -70,0 -113,-17 -130,-50zm449 47l-15 -32 -79 0 -17 32 -72 0 89 -164 94 0 91 164 -91 0zm-78 -68l46 0 -23 -48 -23 48zm452 68l-99 0 -42 -63 -27 0 0 63 -89 0 0 -164 151 0c33,0 59,4 77,13 19,9 28,21 28,35 0,10 -4,18 -10,25 -7,8 -21,14 -42,20l53 71zm-168 -98l38 0c11,0 20,-1 26,-4 7,-2 11,-6 11,-11 0,-11 -12,-16 -34,-16l-41 0 0 31zm466 98l-98 0 -42 -63 -28 0 0 63 -88 0 0 -164 150 0c34,0 59,4 78,13 18,9 27,21 27,35 0,10 -3,18 -10,25 -7,8 -20,14 -41,20l52 71zm-168 -98l38 0c11,0 20,-1 27,-4 7,-2 10,-6 10,-11 0,-11 -11,-16 -34,-16l-41 0 0 31zm332 101c-41,0 -74,-8 -100,-23 -25,-16 -38,-36 -38,-62 0,-24 12,-45 37,-61 24,-16 58,-24 101,-24 41,0 73,8 99,23 25,15 38,35 38,60 0,27 -13,47 -39,63 -25,16 -58,24 -98,24zm-1 -37c15,0 26,-4 33,-12 6,-7 9,-21 9,-40 0,-29 -13,-43 -40,-43 -29,0 -44,16 -44,49 0,30 14,46 42,46zm378 -6l0 40 -203 0 0 -164 89 0 0 124 114 0zm233 0l0 40 -203 0 0 -164 89 0 0 124 114 0zm151 43c-41,0 -74,-8 -99,-23 -26,-16 -39,-36 -39,-62 0,-24 13,-45 37,-61 24,-16 58,-24 102,-24 40,0 73,8 98,23 25,15 38,35 38,60 0,27 -13,47 -38,63 -26,16 -59,24 -99,24zm0 -37c15,0 25,-4 32,-12 7,-7 10,-21 10,-40 0,-29 -14,-43 -41,-43 -29,0 -44,16 -44,49 0,30 15,46 43,46z"/>
    <path class="fil3 str1" d="M3349 86l-77 164 -74 0 -40 -90 -39 90 -77 0 -77 -164 84 0 40 94 40 -94 69 0 43 95 40 -95 68 0zm245 125l0 39 -217 0 0 -164 217 0 0 38 -130 0 0 24 105 0 0 36 -105 0 0 27 130 0zm35 39l0 -164 147 0c30,0 52,4 66,13 14,9 21,19 21,30 0,8 -4,15 -12,22 -8,7 -20,11 -36,14 37,5 56,18 56,38 0,12 -6,23 -20,33 -13,10 -41,14 -84,14l-138 0zm81 -101l42 0c10,0 17,-2 22,-5 4,-3 6,-6 6,-9 0,-9 -10,-14 -30,-14l-40 0 0 28zm0 65l44 0c11,0 19,-2 24,-5 5,-3 7,-6 7,-10 0,-4 -2,-7 -7,-10 -5,-4 -14,-5 -27,-5l-41 0 0 30z"/>
   </g>
  </g>
 </g>
</svg>
